<svg width="96" height="96" viewBox="0 0 96 96" fill="none" xmlns="http://www.w3.org/2000/svg">
<rect width="96" height="96" rx="8" fill="white"/>
<path fill-rule="evenodd" clip-rule="evenodd" d="M15 78.4048C15.0005 78.4049 15.0009 78.405 15.0014 78.4051C15.043 82.7877 18.6086 86.3276 23.001 86.3276H72.001C76.4193 86.3276 80.001 82.7459 80.001 78.3276V17C80.001 12.5817 76.4193 9 72.001 9H23.001C18.7192 9 15.223 12.3639 15.0112 16.5931C15.0075 16.5938 15.0037 16.5944 15 16.5951V78.4048ZM23.001 82.3276H72.001C74.2101 82.3276 76.001 80.5367 76.001 78.3276V17C76.001 14.7909 74.2101 13 72.001 13H23.001C21.1012 13 19.5107 14.3245 19.1026 16.1005C20.0583 16.0339 21.0247 15.9999 22 15.9999C41.8823 15.9999 58 30.103 58 47.4999C58 64.8969 41.8823 78.9999 22 78.9999C21.0037 78.9999 20.0168 78.9645 19.041 78.8951C19.3165 80.8354 20.9845 82.3276 23.001 82.3276Z" fill="#5E85CF"/>
</svg>
